<mxfile host="app.diagrams.net" agent="Mozilla/5.0 (Windows NT 10.0; Win64; x64) AppleWebKit/537.36 (KHTML, like Gecko) Chrome/132.0.0.0 Safari/537.36" version="26.0.11">
  <diagram name="페이지-1" id="rlIk94qliLRaoyaj9lRK">
    <mxGraphModel dx="1593" dy="858" grid="1" gridSize="10" guides="1" tooltips="1" connect="1" arrows="1" fold="1" page="1" pageScale="1" pageWidth="827" pageHeight="1169" math="0" shadow="0">
      <root>
        <mxCell id="0" />
        <mxCell id="1" parent="0" />
        <mxCell id="WWnCUEwSdr3q152t_urP-39" value="" style="edgeStyle=orthogonalEdgeStyle;rounded=0;orthogonalLoop=1;jettySize=auto;html=1;" edge="1" parent="1" source="WWnCUEwSdr3q152t_urP-44" target="WWnCUEwSdr3q152t_urP-47">
          <mxGeometry relative="1" as="geometry" />
        </mxCell>
        <mxCell id="WWnCUEwSdr3q152t_urP-40" value="Public IP" style="edgeLabel;html=1;align=center;verticalAlign=middle;resizable=0;points=[];" vertex="1" connectable="0" parent="WWnCUEwSdr3q152t_urP-39">
          <mxGeometry y="-1" relative="1" as="geometry">
            <mxPoint as="offset" />
          </mxGeometry>
        </mxCell>
        <mxCell id="WWnCUEwSdr3q152t_urP-41" value="" style="edgeStyle=orthogonalEdgeStyle;rounded=0;orthogonalLoop=1;jettySize=auto;html=1;" edge="1" parent="1">
          <mxGeometry relative="1" as="geometry">
            <mxPoint x="414" y="140" as="sourcePoint" />
            <mxPoint x="290" y="140" as="targetPoint" />
          </mxGeometry>
        </mxCell>
        <mxCell id="WWnCUEwSdr3q152t_urP-42" value="도메인 주소" style="edgeLabel;html=1;align=center;verticalAlign=middle;resizable=0;points=[];" vertex="1" connectable="0" parent="WWnCUEwSdr3q152t_urP-41">
          <mxGeometry x="-0.0645" y="-1" relative="1" as="geometry">
            <mxPoint as="offset" />
          </mxGeometry>
        </mxCell>
        <mxCell id="WWnCUEwSdr3q152t_urP-43" value="" style="edgeStyle=orthogonalEdgeStyle;rounded=0;orthogonalLoop=1;jettySize=auto;html=1;fillColor=#f8cecc;strokeColor=#000000;" edge="1" parent="1" source="WWnCUEwSdr3q152t_urP-44" target="WWnCUEwSdr3q152t_urP-52">
          <mxGeometry relative="1" as="geometry" />
        </mxCell>
        <mxCell id="WWnCUEwSdr3q152t_urP-44" value="" style="rounded=1;whiteSpace=wrap;html=1;" vertex="1" parent="1">
          <mxGeometry x="414" y="90" width="270" height="140" as="geometry" />
        </mxCell>
        <mxCell id="WWnCUEwSdr3q152t_urP-45" value="&lt;font&gt;웹 브라우저&lt;/font&gt;" style="verticalAlign=top;verticalLabelPosition=bottom;labelPosition=center;align=center;html=1;outlineConnect=0;gradientDirection=north;strokeWidth=1;shape=mxgraph.networks.pc;fillColor=#d5e8d4;strokeColor=#82b366;" vertex="1" parent="1">
          <mxGeometry x="444" y="120" width="100" height="70" as="geometry" />
        </mxCell>
        <mxCell id="WWnCUEwSdr3q152t_urP-46" value="모바일 앱" style="outlineConnect=0;dashed=0;verticalLabelPosition=bottom;verticalAlign=top;align=center;html=1;shape=mxgraph.aws3.mobile_client;fillColor=#f8cecc;strokeColor=#b85450;" vertex="1" parent="1">
          <mxGeometry x="594" y="127" width="40.5" height="63" as="geometry" />
        </mxCell>
        <mxCell id="WWnCUEwSdr3q152t_urP-47" value="" style="points=[[0.5,0,0],[0.765,0.48,0],[0.99,0.98,0],[0.5,1,0],[0.01,0.98,0],[0.235,0.48,0]];verticalLabelPosition=bottom;sketch=0;html=1;verticalAlign=top;aspect=fixed;align=center;pointerEvents=1;shape=mxgraph.cisco19.ldap;fillColor=#005073;strokeColor=none;" vertex="1" parent="1">
          <mxGeometry x="509" y="330" width="80" height="68" as="geometry" />
        </mxCell>
        <mxCell id="WWnCUEwSdr3q152t_urP-48" value="Public IP 주소" style="edgeStyle=orthogonalEdgeStyle;rounded=0;orthogonalLoop=1;jettySize=auto;html=1;" edge="1" parent="1">
          <mxGeometry relative="1" as="geometry">
            <mxPoint x="414" y="170" as="targetPoint" />
            <mxPoint x="290" y="170" as="sourcePoint" />
          </mxGeometry>
        </mxCell>
        <mxCell id="WWnCUEwSdr3q152t_urP-49" value="" style="image;aspect=fixed;html=1;points=[];align=center;fontSize=12;image=img/lib/azure2/networking/DNS_Zones.svg;" vertex="1" parent="1">
          <mxGeometry x="200" y="115" width="90" height="90" as="geometry" />
        </mxCell>
        <mxCell id="WWnCUEwSdr3q152t_urP-50" value="로드밸런서" style="text;html=1;align=center;verticalAlign=middle;resizable=0;points=[];autosize=1;strokeColor=none;fillColor=none;" vertex="1" parent="1">
          <mxGeometry x="589" y="349" width="80" height="30" as="geometry" />
        </mxCell>
        <mxCell id="WWnCUEwSdr3q152t_urP-51" value="사용자" style="text;html=1;align=center;verticalAlign=middle;resizable=0;points=[];autosize=1;strokeColor=none;fillColor=none;" vertex="1" parent="1">
          <mxGeometry x="519" y="60" width="60" height="30" as="geometry" />
        </mxCell>
        <mxCell id="WWnCUEwSdr3q152t_urP-52" value="CDN" style="image;aspect=fixed;html=1;points=[];align=center;fontSize=12;image=img/lib/azure2/app_services/CDN_Profiles.svg;" vertex="1" parent="1">
          <mxGeometry x="800" y="125.25" width="118.15" height="69.5" as="geometry" />
        </mxCell>
        <mxCell id="WWnCUEwSdr3q152t_urP-53" value="NoSQL" style="image;aspect=fixed;perimeter=ellipsePerimeter;html=1;align=center;shadow=0;dashed=0;spacingTop=3;image=img/lib/active_directory/database_server.svg;" vertex="1" parent="1">
          <mxGeometry x="1000" y="750" width="72.7" height="88.66" as="geometry" />
        </mxCell>
        <mxCell id="WWnCUEwSdr3q152t_urP-54" value="" style="rounded=1;whiteSpace=wrap;html=1;dashed=1;" vertex="1" parent="1">
          <mxGeometry x="188" y="510" width="722" height="450" as="geometry" />
        </mxCell>
        <mxCell id="WWnCUEwSdr3q152t_urP-91" value="" style="edgeStyle=orthogonalEdgeStyle;rounded=0;orthogonalLoop=1;jettySize=auto;html=1;entryX=0;entryY=0.5;entryDx=0;entryDy=0;" edge="1" parent="1" source="WWnCUEwSdr3q152t_urP-55" target="WWnCUEwSdr3q152t_urP-82">
          <mxGeometry relative="1" as="geometry">
            <mxPoint x="590" y="652.5" as="targetPoint" />
          </mxGeometry>
        </mxCell>
        <mxCell id="WWnCUEwSdr3q152t_urP-92" value="발행" style="edgeLabel;html=1;align=center;verticalAlign=middle;resizable=0;points=[];" vertex="1" connectable="0" parent="WWnCUEwSdr3q152t_urP-91">
          <mxGeometry x="-0.0055" y="1" relative="1" as="geometry">
            <mxPoint as="offset" />
          </mxGeometry>
        </mxCell>
        <mxCell id="WWnCUEwSdr3q152t_urP-55" value="" style="rounded=1;whiteSpace=wrap;html=1;dashed=1;" vertex="1" parent="1">
          <mxGeometry x="300" y="575" width="140" height="155" as="geometry" />
        </mxCell>
        <mxCell id="WWnCUEwSdr3q152t_urP-56" value="웹서버" style="image;aspect=fixed;perimeter=ellipsePerimeter;html=1;align=center;shadow=0;dashed=0;spacingTop=3;image=img/lib/active_directory/server_farm.svg;" vertex="1" parent="1">
          <mxGeometry x="320" y="595" width="100" height="100" as="geometry" />
        </mxCell>
        <mxCell id="WWnCUEwSdr3q152t_urP-57" value="" style="rounded=1;whiteSpace=wrap;html=1;" vertex="1" parent="1">
          <mxGeometry x="240" y="790" width="120" height="140" as="geometry" />
        </mxCell>
        <mxCell id="WWnCUEwSdr3q152t_urP-58" value="" style="image;aspect=fixed;perimeter=ellipsePerimeter;html=1;align=center;shadow=0;dashed=0;spacingTop=3;image=img/lib/active_directory/database_server.svg;" vertex="1" parent="1">
          <mxGeometry x="253.64999999999998" y="795.83" width="72.7" height="88.66" as="geometry" />
        </mxCell>
        <mxCell id="WWnCUEwSdr3q152t_urP-59" value="" style="rounded=1;whiteSpace=wrap;html=1;" vertex="1" parent="1">
          <mxGeometry x="390" y="790" width="120" height="140" as="geometry" />
        </mxCell>
        <mxCell id="WWnCUEwSdr3q152t_urP-60" value="" style="outlineConnect=0;dashed=0;verticalLabelPosition=bottom;verticalAlign=top;align=center;html=1;shape=mxgraph.aws3.cache_node;fillColor=#2E73B8;gradientColor=none;" vertex="1" parent="1">
          <mxGeometry x="410" y="810.6600000000001" width="60" height="63" as="geometry" />
        </mxCell>
        <mxCell id="WWnCUEwSdr3q152t_urP-70" value="" style="endArrow=classic;html=1;rounded=0;exitX=0.5;exitY=1;exitDx=0;exitDy=0;exitPerimeter=0;entryX=0.5;entryY=0;entryDx=0;entryDy=0;" edge="1" parent="1" source="WWnCUEwSdr3q152t_urP-47" target="WWnCUEwSdr3q152t_urP-54">
          <mxGeometry width="50" height="50" relative="1" as="geometry">
            <mxPoint x="620" y="550" as="sourcePoint" />
            <mxPoint x="670" y="500" as="targetPoint" />
          </mxGeometry>
        </mxCell>
        <mxCell id="WWnCUEwSdr3q152t_urP-71" value="지리적 라우팅" style="edgeLabel;html=1;align=center;verticalAlign=middle;resizable=0;points=[];" vertex="1" connectable="0" parent="WWnCUEwSdr3q152t_urP-70">
          <mxGeometry x="-0.1413" y="-2" relative="1" as="geometry">
            <mxPoint as="offset" />
          </mxGeometry>
        </mxCell>
        <mxCell id="WWnCUEwSdr3q152t_urP-72" value="" style="endArrow=classic;html=1;rounded=0;exitX=0.5;exitY=1;exitDx=0;exitDy=0;entryX=0.5;entryY=0;entryDx=0;entryDy=0;" edge="1" parent="1" source="WWnCUEwSdr3q152t_urP-55" target="WWnCUEwSdr3q152t_urP-57">
          <mxGeometry width="50" height="50" relative="1" as="geometry">
            <mxPoint x="630" y="660" as="sourcePoint" />
            <mxPoint x="680" y="610" as="targetPoint" />
          </mxGeometry>
        </mxCell>
        <mxCell id="WWnCUEwSdr3q152t_urP-73" value="" style="endArrow=classic;html=1;rounded=0;exitX=0.5;exitY=1;exitDx=0;exitDy=0;entryX=0.5;entryY=0;entryDx=0;entryDy=0;" edge="1" parent="1" source="WWnCUEwSdr3q152t_urP-55" target="WWnCUEwSdr3q152t_urP-59">
          <mxGeometry width="50" height="50" relative="1" as="geometry">
            <mxPoint x="630" y="660" as="sourcePoint" />
            <mxPoint x="680" y="610" as="targetPoint" />
          </mxGeometry>
        </mxCell>
        <mxCell id="WWnCUEwSdr3q152t_urP-76" value="" style="endArrow=classic;html=1;rounded=0;entryX=0;entryY=0.25;entryDx=0;entryDy=0;exitX=0.5;exitY=1;exitDx=0;exitDy=0;" edge="1" parent="1" target="WWnCUEwSdr3q152t_urP-53" source="WWnCUEwSdr3q152t_urP-55">
          <mxGeometry width="50" height="50" relative="1" as="geometry">
            <mxPoint x="360" y="720" as="sourcePoint" />
            <mxPoint x="670" y="600" as="targetPoint" />
          </mxGeometry>
        </mxCell>
        <mxCell id="WWnCUEwSdr3q152t_urP-79" value="&lt;div style=&quot;text-align: left;&quot;&gt;&lt;span style=&quot;background-color: transparent; color: light-dark(rgb(0, 0, 0), rgb(255, 255, 255));&quot;&gt;DC1&lt;/span&gt;&lt;/div&gt;" style="text;html=1;align=center;verticalAlign=middle;whiteSpace=wrap;rounded=0;" vertex="1" parent="1">
          <mxGeometry x="213.65" y="530" width="60" height="30" as="geometry" />
        </mxCell>
        <mxCell id="WWnCUEwSdr3q152t_urP-80" value="" style="edgeStyle=orthogonalEdgeStyle;rounded=0;orthogonalLoop=1;jettySize=auto;html=1;entryX=0.5;entryY=0;entryDx=0;entryDy=0;exitX=0.5;exitY=1;exitDx=0;exitDy=0;" edge="1" parent="1" source="WWnCUEwSdr3q152t_urP-82" target="WWnCUEwSdr3q152t_urP-87">
          <mxGeometry relative="1" as="geometry">
            <Array as="points">
              <mxPoint x="734" y="690" />
              <mxPoint x="734" y="690" />
            </Array>
            <mxPoint x="740" y="730" as="sourcePoint" />
            <mxPoint x="939" y="654.5" as="targetPoint" />
          </mxGeometry>
        </mxCell>
        <mxCell id="WWnCUEwSdr3q152t_urP-81" value="소비" style="edgeLabel;html=1;align=center;verticalAlign=middle;resizable=0;points=[];" vertex="1" connectable="0" parent="WWnCUEwSdr3q152t_urP-80">
          <mxGeometry x="0.1" y="1" relative="1" as="geometry">
            <mxPoint x="-1" y="-9" as="offset" />
          </mxGeometry>
        </mxCell>
        <mxCell id="WWnCUEwSdr3q152t_urP-82" value="" style="rounded=1;whiteSpace=wrap;html=1;" vertex="1" parent="1">
          <mxGeometry x="609" y="622.5" width="250" height="60" as="geometry" />
        </mxCell>
        <mxCell id="WWnCUEwSdr3q152t_urP-83" value="" style="shape=message;html=1;html=1;outlineConnect=0;labelPosition=center;verticalLabelPosition=bottom;align=center;verticalAlign=top;" vertex="1" parent="1">
          <mxGeometry x="623" y="632.5" width="60" height="40" as="geometry" />
        </mxCell>
        <mxCell id="WWnCUEwSdr3q152t_urP-84" value="" style="shape=message;html=1;html=1;outlineConnect=0;labelPosition=center;verticalLabelPosition=bottom;align=center;verticalAlign=top;" vertex="1" parent="1">
          <mxGeometry x="699" y="632.5" width="60" height="40" as="geometry" />
        </mxCell>
        <mxCell id="WWnCUEwSdr3q152t_urP-85" value="" style="shape=message;html=1;html=1;outlineConnect=0;labelPosition=center;verticalLabelPosition=bottom;align=center;verticalAlign=top;" vertex="1" parent="1">
          <mxGeometry x="779" y="632.5" width="60" height="40" as="geometry" />
        </mxCell>
        <mxCell id="WWnCUEwSdr3q152t_urP-87" value="ㅅ" style="rounded=1;whiteSpace=wrap;html=1;dashed=1;" vertex="1" parent="1">
          <mxGeometry x="654" y="772.5" width="160" height="160" as="geometry" />
        </mxCell>
        <mxCell id="WWnCUEwSdr3q152t_urP-88" value="작업 서버" style="image;aspect=fixed;perimeter=ellipsePerimeter;html=1;align=center;shadow=0;dashed=0;spacingTop=3;image=img/lib/active_directory/server_farm.svg;" vertex="1" parent="1">
          <mxGeometry x="684" y="790" width="100" height="100" as="geometry" />
        </mxCell>
        <mxCell id="WWnCUEwSdr3q152t_urP-86" value="메시지 큐(작업 큐)" style="text;html=1;align=center;verticalAlign=middle;resizable=0;points=[];autosize=1;strokeColor=none;fillColor=none;" vertex="1" parent="1">
          <mxGeometry x="680" y="592.5" width="120" height="30" as="geometry" />
        </mxCell>
        <mxCell id="WWnCUEwSdr3q152t_urP-95" value="" style="outlineConnect=0;dashed=0;verticalLabelPosition=bottom;verticalAlign=top;align=center;html=1;shape=mxgraph.aws3.cache_node;fillColor=#2E73B8;gradientColor=none;" vertex="1" parent="1">
          <mxGeometry x="420" y="820.6600000000001" width="60" height="63" as="geometry" />
        </mxCell>
        <mxCell id="WWnCUEwSdr3q152t_urP-98" value="캐시" style="outlineConnect=0;dashed=0;verticalLabelPosition=bottom;verticalAlign=top;align=center;html=1;shape=mxgraph.aws3.cache_node;fillColor=#2E73B8;gradientColor=none;" vertex="1" parent="1">
          <mxGeometry x="430" y="830.6600000000001" width="60" height="63" as="geometry" />
        </mxCell>
        <mxCell id="WWnCUEwSdr3q152t_urP-99" value="" style="image;aspect=fixed;perimeter=ellipsePerimeter;html=1;align=center;shadow=0;dashed=0;spacingTop=3;image=img/lib/active_directory/database_server.svg;" vertex="1" parent="1">
          <mxGeometry x="263.65" y="805.83" width="72.7" height="88.66" as="geometry" />
        </mxCell>
        <mxCell id="WWnCUEwSdr3q152t_urP-100" value="데이터베이스" style="image;aspect=fixed;perimeter=ellipsePerimeter;html=1;align=center;shadow=0;dashed=0;spacingTop=3;image=img/lib/active_directory/database_server.svg;" vertex="1" parent="1">
          <mxGeometry x="273.65" y="815.83" width="72.7" height="88.66" as="geometry" />
        </mxCell>
        <mxCell id="WWnCUEwSdr3q152t_urP-106" value="" style="edgeStyle=orthogonalEdgeStyle;rounded=0;orthogonalLoop=1;jettySize=auto;html=1;entryX=0.5;entryY=1;entryDx=0;entryDy=0;" edge="1" parent="1" source="WWnCUEwSdr3q152t_urP-101" target="WWnCUEwSdr3q152t_urP-54">
          <mxGeometry relative="1" as="geometry" />
        </mxCell>
        <mxCell id="WWnCUEwSdr3q152t_urP-101" value="" style="rounded=1;whiteSpace=wrap;html=1;" vertex="1" parent="1">
          <mxGeometry x="454" y="1010" width="190" height="90" as="geometry" />
        </mxCell>
        <mxCell id="WWnCUEwSdr3q152t_urP-102" value="로그" style="rounded=1;whiteSpace=wrap;html=1;" vertex="1" parent="1">
          <mxGeometry x="463" y="1020" width="81" height="30" as="geometry" />
        </mxCell>
        <mxCell id="WWnCUEwSdr3q152t_urP-103" value="메트릭" style="rounded=1;whiteSpace=wrap;html=1;" vertex="1" parent="1">
          <mxGeometry x="554" y="1020" width="81" height="30" as="geometry" />
        </mxCell>
        <mxCell id="WWnCUEwSdr3q152t_urP-104" value="모니터링" style="rounded=1;whiteSpace=wrap;html=1;" vertex="1" parent="1">
          <mxGeometry x="463" y="1060" width="81" height="30" as="geometry" />
        </mxCell>
        <mxCell id="WWnCUEwSdr3q152t_urP-105" value="자동화" style="rounded=1;whiteSpace=wrap;html=1;" vertex="1" parent="1">
          <mxGeometry x="554" y="1060" width="81" height="30" as="geometry" />
        </mxCell>
      </root>
    </mxGraphModel>
  </diagram>
</mxfile>
